<svg width="439" height="338" viewBox="0 0 439 338" fill="none" xmlns="http://www.w3.org/2000/svg">
<path d="M0.000244141 168.833L246.728 312.211L438.972 201.212L192.273 57.8337L0.000244141 168.833Z" fill="#16A99A"/>
<path d="M43.284 195.948L107.616 233.333L265.282 142.302L200.95 104.917L43.284 195.948Z" fill="#125D56"/>
<path d="M194.87 157.88L192.7 144.81L171.79 143.65L180.06 138.87L192.35 139.78L190.75 132.7L198.89 128L200.88 140.09L223.35 141.44L215.21 146.14L201.2 145.1L202.92 153.23L194.87 157.88Z" fill="white"/>
<path d="M158.19 150.91C155.868 152.089 153.886 153.841 152.43 156C151.927 156.785 151.616 157.678 151.523 158.606C151.429 159.533 151.555 160.47 151.89 161.34C152.61 163.113 154.203 164.72 156.67 166.16C159.207 167.613 162.002 168.558 164.9 168.94C167.973 169.339 171.09 169.238 174.13 168.64C177.247 168.039 180.242 166.92 182.99 165.33C185.141 164.204 187.011 162.608 188.46 160.66C188.981 159.972 189.352 159.182 189.548 158.341C189.744 157.5 189.762 156.628 189.6 155.78C189.066 153.934 187.874 152.347 186.25 151.32L179.61 155.15C180.333 155.704 180.828 156.505 181 157.4C181.039 157.825 180.987 158.254 180.848 158.657C180.708 159.061 180.484 159.43 180.19 159.74C179.378 160.665 178.402 161.431 177.31 162C175.869 162.845 174.298 163.443 172.66 163.77C171.074 164.079 169.447 164.11 167.85 163.86C166.271 163.605 164.753 163.063 163.37 162.26C162.224 161.689 161.276 160.787 160.65 159.67C160.437 159.236 160.341 158.755 160.37 158.272C160.4 157.79 160.555 157.324 160.82 156.92C161.572 155.775 162.605 154.842 163.82 154.21C165.07 153.478 166.416 152.926 167.82 152.57C169.15 152.219 170.526 152.071 171.9 152.13C173.203 152.179 174.49 152.439 175.71 152.9L182.35 149.07C179.935 147.968 177.339 147.314 174.69 147.14C171.855 146.914 169.002 147.123 166.23 147.76C163.406 148.397 160.695 149.459 158.19 150.91Z" fill="white"/>
<path fill-rule="evenodd" clip-rule="evenodd" d="M125.87 183.94C123.37 182.5 121.787 180.903 121.12 179.15C120.79 178.265 120.673 177.315 120.779 176.377C120.885 175.439 121.211 174.539 121.73 173.75C123.239 171.545 125.274 169.751 127.65 168.53C133.194 165.311 139.637 163.991 146 164.77C148.918 165.117 151.734 166.053 154.28 167.52C156.76 168.95 158.33 170.56 159 172.33C159.326 173.217 159.438 174.168 159.327 175.107C159.216 176.045 158.884 176.944 158.36 177.73C156.862 179.938 154.828 181.73 152.45 182.94C149.658 184.564 146.617 185.717 143.45 186.35C140.384 186.978 137.235 187.097 134.13 186.7C131.22 186.341 128.411 185.403 125.87 183.94ZM132.54 180.09C133.901 180.873 135.403 181.379 136.96 181.58H136.95C138.573 181.787 140.219 181.719 141.82 181.38C143.503 181.041 145.12 180.433 146.61 179.58C147.894 178.925 149.002 177.972 149.84 176.8C150.13 176.4 150.312 175.933 150.37 175.443C150.428 174.953 150.359 174.456 150.17 174C149.64 172.863 148.737 171.942 147.61 171.39C146.256 170.598 144.756 170.088 143.2 169.89C141.588 169.675 139.951 169.739 138.36 170.08C136.663 170.434 135.035 171.062 133.54 171.94C132.273 172.594 131.18 173.54 130.35 174.7C130.064 175.105 129.881 175.573 129.816 176.064C129.752 176.556 129.808 177.055 129.98 177.52C130.522 178.639 131.423 179.544 132.54 180.09Z" fill="white"/>
<path fill-rule="evenodd" clip-rule="evenodd" d="M85.4801 193.48L97.4201 186.59C100.207 184.974 103.236 183.815 106.39 183.16C109.389 182.493 112.479 182.338 115.53 182.7C118.349 182.999 121.074 183.885 123.53 185.3C125.93 186.693 127.43 188.253 128.03 189.98C128.322 190.864 128.399 191.805 128.255 192.725C128.11 193.645 127.749 194.518 127.2 195.27C125.63 197.429 123.575 199.19 121.2 200.41L109.26 207.3L85.4801 193.48ZM109.975 200.106L97.8901 193.12L103.76 189.72C105.144 188.903 106.655 188.321 108.23 188C109.724 187.671 111.263 187.603 112.78 187.8C114.204 187.972 115.579 188.432 116.82 189.15C117.844 189.651 118.668 190.482 119.16 191.51C119.327 191.945 119.384 192.414 119.326 192.876C119.268 193.338 119.098 193.779 118.83 194.16C118.049 195.244 117.021 196.125 115.83 196.73L109.975 200.106Z" fill="white"/>
<path d="M-0.000549316 168.832L0.0276642 179.078L246.727 322.457V312.211L-0.000549316 168.832Z" fill="#062F2B"/>
<path d="M246.727 312.21V322.456L438.999 211.429L438.971 201.211L246.727 312.21Z" fill="#0B5850"/>
<path d="M106.556 297.304L160.318 328.536L250.175 276.668L196.427 245.422L106.556 297.304Z" fill="#FEC84B"/>
<path d="M106.556 297.304L106.57 306.58L160.331 337.826L160.318 328.536L106.556 297.304Z" fill="#DC6803"/>
<path d="M160.318 328.537L160.332 337.826L250.189 285.944L250.175 276.668L160.318 328.537Z" fill="#FDB022"/>
<path d="M196.902 281.151C196.305 281.175 195.71 281.073 195.154 280.852L190.672 283.437C191.923 284.079 193.301 284.431 194.706 284.468C196.343 284.534 197.981 284.347 199.562 283.915C201.319 283.427 203.006 282.714 204.581 281.793C205.925 281.085 207.122 280.127 208.107 278.97C208.44 278.606 208.69 278.175 208.843 277.706C208.995 277.237 209.044 276.741 208.989 276.251C208.86 275.753 208.621 275.291 208.29 274.898C207.959 274.505 207.544 274.192 207.076 273.98C206.204 273.464 205.231 273.143 204.223 273.039C203.083 272.929 201.932 273.036 200.831 273.353C199.326 273.761 197.865 274.316 196.469 275.011L192.943 276.654C192.207 277.044 191.416 277.321 190.598 277.476C190.118 277.553 189.625 277.475 189.193 277.252C189.083 277.21 188.984 277.142 188.905 277.053C188.827 276.964 188.773 276.857 188.746 276.741C188.719 276.626 188.722 276.506 188.753 276.392C188.784 276.277 188.843 276.172 188.925 276.087C189.447 275.416 190.117 274.874 190.882 274.503C191.548 274.1 192.26 273.779 193.003 273.547C193.598 273.333 194.224 273.216 194.856 273.203C195.366 273.163 195.878 273.245 196.35 273.442L200.831 270.873C199.626 270.281 198.305 269.965 196.962 269.946C195.398 269.9 193.837 270.091 192.331 270.514C190.679 270.974 189.093 271.641 187.61 272.501C186.3 273.197 185.117 274.112 184.114 275.205C183.77 275.532 183.501 275.93 183.326 276.371C183.151 276.812 183.073 277.286 183.098 277.76C183.218 278.233 183.445 278.673 183.761 279.046C184.077 279.419 184.473 279.715 184.921 279.911C186.35 280.721 187.99 281.08 189.627 280.942C191.829 280.713 193.968 280.069 195.931 279.045L199.173 277.551C199.968 277.133 200.818 276.831 201.698 276.654C202.209 276.571 202.733 276.655 203.192 276.893C203.308 276.942 203.41 277.018 203.491 277.115C203.572 277.211 203.628 277.325 203.656 277.448C203.684 277.571 203.682 277.698 203.65 277.82C203.619 277.942 203.559 278.054 203.476 278.148C202.881 278.849 202.155 279.428 201.339 279.851C200.61 280.273 199.839 280.618 199.039 280.882C198.342 281.069 197.623 281.16 196.902 281.151Z" fill="#B54708"/>
<path d="M179.034 291.474C178.436 291.494 177.841 291.387 177.287 291.161L172.805 293.745C174.057 294.382 175.434 294.739 176.838 294.791C178.476 294.851 180.114 294.66 181.694 294.223C183.454 293.749 185.142 293.041 186.713 292.117C188.056 291.413 189.253 290.459 190.239 289.308C190.576 288.943 190.829 288.51 190.981 288.038C191.133 287.566 191.181 287.066 191.121 286.574C190.99 286.082 190.752 285.624 190.424 285.234C190.096 284.845 189.686 284.532 189.223 284.318C188.346 283.799 187.368 283.473 186.355 283.362C185.22 283.251 184.074 283.357 182.979 283.676C181.475 284.089 180.014 284.644 178.616 285.334L175.135 286.977C174.399 287.367 173.608 287.644 172.79 287.799C172.31 287.89 171.813 287.81 171.385 287.575C171.274 287.534 171.175 287.465 171.097 287.376C171.019 287.287 170.964 287.18 170.938 287.065C170.911 286.949 170.914 286.829 170.945 286.715C170.976 286.6 171.035 286.496 171.116 286.41C171.643 285.743 172.312 285.202 173.074 284.826C173.743 284.43 174.454 284.109 175.195 283.87C175.792 283.663 176.416 283.547 177.047 283.526C177.557 283.504 178.065 283.586 178.541 283.765L183.023 281.211C181.815 280.614 180.487 280.297 179.139 280.285C177.575 280.239 176.014 280.43 174.508 280.852C172.855 281.3 171.267 281.963 169.787 282.824C168.479 283.525 167.297 284.438 166.291 285.528C165.946 285.854 165.677 286.252 165.504 286.693C165.331 287.135 165.258 287.61 165.29 288.083C165.411 288.558 165.638 288.999 165.954 289.375C166.269 289.75 166.665 290.049 167.113 290.249C168.541 291.046 170.174 291.4 171.804 291.265C173.972 291.021 176.075 290.372 178.004 289.353L181.246 287.859C182.041 287.443 182.891 287.142 183.77 286.963C184.283 286.874 184.81 286.963 185.264 287.217C185.381 287.262 185.485 287.335 185.568 287.429C185.65 287.524 185.708 287.637 185.738 287.758C185.767 287.88 185.766 288.007 185.736 288.129C185.706 288.25 185.646 288.363 185.563 288.457C184.967 289.162 184.235 289.741 183.412 290.16C182.689 290.584 181.922 290.929 181.126 291.19C180.444 291.376 179.741 291.471 179.034 291.474Z" fill="#B54708"/>
<path d="M150.32 303.575C148.952 302.887 147.841 301.777 147.153 300.408C146.906 299.814 146.809 299.168 146.868 298.528C146.928 297.887 147.144 297.271 147.497 296.733C148.465 295.298 149.78 294.131 151.321 293.342C152.993 292.378 154.802 291.673 156.685 291.25C158.524 290.822 160.419 290.681 162.302 290.832C164.059 290.947 165.781 291.382 167.381 292.117L162.974 294.656C162.165 294.353 161.313 294.182 160.449 294.148C159.533 294.108 158.616 294.209 157.73 294.447C156.801 294.682 155.911 295.049 155.086 295.538C154.27 295.95 153.575 296.568 153.069 297.33C152.89 297.602 152.784 297.916 152.763 298.241C152.742 298.566 152.806 298.891 152.95 299.183C153.366 299.921 153.996 300.514 154.757 300.886C155.681 301.42 156.693 301.784 157.745 301.962C158.808 302.116 159.888 302.09 160.942 301.887C162.031 301.673 163.076 301.279 164.035 300.722C164.76 300.347 165.408 299.84 165.947 299.228C166.134 299.029 166.278 298.794 166.368 298.536C166.458 298.279 166.493 298.006 166.47 297.734C166.362 297.14 166.037 296.608 165.559 296.24L169.966 293.7C171.05 294.389 171.842 295.453 172.192 296.688C172.296 297.252 172.281 297.831 172.15 298.389C172.019 298.947 171.774 299.471 171.43 299.93C170.469 301.226 169.228 302.288 167.8 303.037C165.973 304.09 163.983 304.832 161.914 305.234C159.896 305.632 157.827 305.698 155.788 305.428C153.863 305.168 152.007 304.539 150.32 303.575Z" fill="#B54708"/>
<path d="M110.993 52.8498L154.805 78.3129L246.146 25.5775L202.346 0.114502L110.993 52.8498Z" fill="#344054"/>
<path d="M110.996 52.8494L111.008 60.0088L154.819 85.4607L154.808 78.3124L110.996 52.8494Z" fill="#101828"/>
<path d="M154.807 78.3127L154.818 85.461L246.159 32.7257L246.148 25.5774L154.807 78.3127Z" fill="#667085"/>
<path d="M202.993 28.2189L194.135 23.0686L190.872 24.9556L202.615 31.7709L213.238 25.6438L210.363 23.9677L202.993 28.2189Z" fill="white"/>
<path d="M169.992 37.0101L172.878 38.6861L168.372 41.2835L177.23 46.4338L173.955 48.3208L165.097 43.1705L160.591 45.7678L157.716 44.1029L169.992 37.0101Z" fill="white"/>
<path d="M143.741 52.1726L147.005 50.2856L151.334 52.8053L157.372 49.3199L153.032 46.8003L156.307 44.9133L168.039 51.7397L164.765 53.6267L160.247 50.996L154.22 54.4814L158.737 57.112L155.474 58.9879L143.741 52.1726Z" fill="white"/>
<path d="M176.442 33.2917L188.618 36.1887L183.623 29.1403L188.663 26.2322L200.395 33.0586L197.298 34.8345L188.385 29.662L193.424 37.0767L190.117 38.9859L177.396 36.0777L186.243 41.2281L183.146 43.0151L171.402 36.1998L176.442 33.2917Z" fill="white"/>
<path d="M1.10285 254.216C13.2951 261.301 13.2169 272.767 0.957569 279.852C13.2504 272.767 33.0307 272.767 45.223 279.852C33.0307 272.767 33.0978 261.29 45.3571 254.216C33.0978 261.29 13.2951 261.301 1.10285 254.216Z" fill="#1BD1BF"/>
<path d="M349.568 95.2363C355.664 98.7789 355.625 104.512 349.496 108.054C355.642 104.512 365.532 104.512 371.628 108.054C365.532 104.512 365.566 98.7733 371.695 95.2363C365.566 98.7733 355.664 98.7789 349.568 95.2363Z" fill="#1BD1BF"/>
</svg>
